<?xml version="1.0" standalone="no"?>
<!DOCTYPE svg PUBLIC "-//W3C//DTD SVG 20010904//EN"
 "http://www.w3.org/TR/2001/REC-SVG-20010904/DTD/svg10.dtd">
<svg version="1.0" xmlns="http://www.w3.org/2000/svg"
 width="500.000000pt" height="500.000000pt" viewBox="0 0 500.000000 500.000000"
 preserveAspectRatio="xMidYMid meet">
<metadata>
Created by potrace 1.14, written by Peter Selinger 2001-2017
</metadata>
<g transform="translate(0.000000,500.000000) scale(0.100000,-0.100000)"
fill="#000000" stroke="none">
<path d="M3930 3739 c-41 -7 -55 -10 -100 -21 -8 -1 -21 -9 -28 -16 -8 -7 -18
-10 -23 -7 -5 4 -9 2 -9 -3 0 -6 -13 -15 -30 -21 -16 -5 -30 -15 -30 -20 0 -6
-5 -11 -12 -11 -35 0 -163 -176 -216 -295 -56 -128 -176 -464 -197 -550 -1 -5
-6 -19 -10 -30 -21 -52 -47 -121 -50 -130 -8 -36 -82 -198 -124 -270 -65 -116
-192 -262 -214 -248 -5 3 -7 1 -4 -4 7 -11 -60 -59 -75 -55 -5 1 -8 -2 -8 -7
0 -5 -10 -12 -22 -16 -13 -4 -25 -8 -28 -10 -3 -1 -13 -5 -22 -9 -9 -4 -25 -9
-35 -11 -10 -2 -18 -4 -18 -5 0 -13 -195 -18 -245 -7 -19 5 -41 9 -47 9 -7 1
-13 5 -13 10 0 4 -3 7 -7 6 -19 -5 -89 40 -137 87 -65 65 -109 147 -139 261
-20 74 -24 109 -22 209 2 66 5 131 9 145 13 54 20 85 21 90 17 88 124 287 192
358 7 7 13 18 13 23 0 6 5 7 10 4 6 -3 10 -2 10 3 0 9 107 86 120 87 3 0 26 7
53 14 42 12 93 11 153 -2 12 -3 50 -26 85 -52 57 -42 68 -46 106 -42 58 6 103
51 103 104 0 64 -48 117 -156 172 -67 34 -113 44 -194 44 -97 -1 -131 -7 -275
-50 -31 -10 -129 -64 -137 -77 -4 -6 -8 -7 -8 -2 0 5 -12 -3 -26 -18 -15 -14
-31 -26 -36 -26 -13 0 -177 -168 -170 -174 3 -4 1 -6 -5 -6 -5 0 -25 -24 -43
-52 -19 -29 -38 -54 -42 -56 -4 -2 -8 -10 -8 -18 0 -8 -5 -14 -12 -14 -6 0 -8
-3 -5 -6 4 -4 -2 -19 -13 -34 -21 -30 -92 -190 -84 -190 2 0 -2 -13 -11 -30
-8 -16 -15 -32 -15 -35 0 -3 0 -6 -1 -7 0 -2 -2 -13 -5 -25 -4 -21 -21 -65
-62 -153 -8 -19 -16 -37 -16 -40 -2 -13 -83 -151 -115 -195 -48 -68 -179 -195
-201 -195 -5 0 -10 -5 -10 -11 0 -5 -4 -8 -9 -5 -5 4 -11 3 -13 -2 -6 -15 -96
-51 -164 -65 -66 -14 -194 -15 -241 -3 -13 3 -32 8 -42 10 -11 3 -30 10 -43
17 -13 8 -26 13 -30 14 -4 0 -17 8 -28 17 -11 10 -23 18 -26 18 -10 0 -60 55
-92 103 -18 26 -30 47 -27 47 3 0 -1 10 -9 23 -21 32 -45 122 -37 135 5 8 17
9 44 1 109 -30 298 -9 407 46 14 7 42 21 63 31 20 10 37 23 37 28 0 5 3 7 6 3
12 -12 139 112 183 178 14 22 29 42 32 45 12 10 69 130 62 130 -5 0 -3 4 3 8
17 10 51 157 53 227 2 78 -29 181 -74 240 -41 53 -95 111 -95 101 0 -3 -18 5
-41 20 -23 14 -51 28 -63 30 -103 24 -158 24 -276 1 -46 -9 -55 -12 -60 -19
-3 -4 -15 -9 -25 -11 -11 -2 -31 -9 -45 -14 -14 -6 -29 -12 -35 -14 -5 -1 -19
-11 -29 -21 -10 -9 -23 -15 -28 -12 -4 3 -8 0 -8 -5 0 -6 -5 -11 -11 -11 -6 0
-16 -6 -24 -12 -7 -7 -25 -22 -41 -33 -43 -31 -84 -67 -113 -99 -14 -16 -35
-38 -46 -50 -52 -54 -178 -250 -168 -260 4 -3 1 -6 -5 -6 -7 0 -11 -3 -10 -7
0 -5 -10 -33 -24 -63 -29 -63 -66 -177 -74 -230 -3 -19 -8 -38 -9 -41 -5 -8
-18 -165 -18 -224 -1 -126 34 -314 65 -352 6 -7 7 -13 4 -13 -4 0 7 -27 26
-60 18 -33 36 -60 40 -60 5 0 8 -6 8 -12 0 -22 167 -182 175 -168 2 3 12 -4
24 -14 12 -11 21 -15 21 -10 0 5 4 4 8 -2 11 -16 90 -45 167 -59 80 -16 233
-17 320 -4 105 17 279 76 296 102 3 5 8 7 11 5 8 -5 121 68 156 101 17 17 35
31 39 32 5 0 40 36 78 81 39 44 76 86 83 94 7 8 11 14 8 14 -2 0 5 11 17 24
27 31 39 25 55 -27 34 -109 121 -242 211 -322 109 -97 230 -145 386 -152 114
-6 291 13 334 36 9 5 21 10 26 10 23 3 103 37 148 63 26 15 50 28 53 28 9 0
117 86 162 129 46 44 60 45 85 2 56 -95 220 -207 332 -227 22 -3 49 -8 60 -11
46 -9 224 -2 312 12 18 3 35 6 38 6 2 0 19 5 37 10 18 6 42 12 53 14 100 18
255 93 371 178 67 50 184 163 184 178 0 6 5 7 10 4 6 -3 10 -2 10 3 0 8 32 54
69 98 51 62 175 265 225 369 45 93 116 256 114 263 -1 4 2 14 5 22 22 53 34
103 30 132 -2 18 -4 39 -5 45 -2 19 -81 54 -117 51 -18 -1 -41 -11 -53 -22
-19 -18 -47 -72 -53 -106 -2 -8 -4 -16 -5 -17 -2 -2 -3 -6 -5 -10 -9 -36 -99
-239 -112 -254 -7 -8 -13 -20 -13 -25 0 -14 -121 -218 -132 -222 -4 -2 -8 -8
-8 -13 0 -6 -19 -35 -42 -67 -58 -76 -67 -87 -112 -134 -34 -35 -40 -39 -48
-24 -6 10 -6 33 0 60 10 46 8 221 -2 271 -10 45 -36 137 -45 160 -25 58 -33
80 -30 80 2 0 -7 17 -19 38 -13 20 -20 37 -17 37 4 0 3 6 -3 13 -20 24 -140
266 -134 271 3 4 0 6 -6 6 -7 0 -11 3 -10 8 1 4 -3 21 -8 37 -6 17 -11 33 -10
36 1 3 -5 13 -13 22 -7 10 -11 17 -7 17 3 0 1 12 -5 28 -14 33 -20 182 -8 182
5 0 9 6 9 13 0 23 62 78 115 103 56 27 87 54 92 82 8 36 9 57 4 67 -3 6 -6 12
-6 15 -1 17 -42 71 -57 76 -10 3 -18 9 -18 13 0 4 -6 8 -12 8 -7 0 -29 3 -48
5 -19 3 -55 2 -80 -3z m-2869 -466 c65 -39 84 -162 42 -272 -13 -36 -25 -72
-25 -79 -1 -6 -3 -10 -6 -7 -3 2 -14 -13 -24 -35 -11 -22 -24 -40 -30 -40 -5
0 -6 -4 -3 -10 3 -5 2 -10 -4 -10 -6 0 -17 -12 -25 -27 -8 -16 -15 -23 -16
-18 0 6 -9 -3 -19 -18 -10 -16 -21 -28 -25 -28 -4 1 -21 -10 -40 -24 -18 -14
-38 -25 -44 -25 -7 0 -12 -5 -12 -10 0 -6 -3 -9 -7 -8 -5 0 -17 -2 -28 -6 -11
-4 -29 -11 -40 -15 -26 -10 -160 -2 -160 9 0 1 -9 3 -19 5 -11 2 -27 12 -38
22 -18 19 -16 34 26 168 33 104 126 254 214 342 55 55 92 86 92 77 0 -4 6 -1
14 5 39 32 126 34 177 4z m2573 -275 c8 -18 24 -55 34 -83 11 -27 34 -80 51
-118 17 -37 31 -69 31 -71 0 -2 6 -19 14 -37 8 -19 15 -38 16 -44 1 -5 8 -26
15 -45 7 -19 16 -44 20 -55 4 -11 9 -27 10 -35 1 -8 6 -28 10 -45 21 -90 3
-250 -37 -330 -12 -22 -23 -42 -27 -45 -3 -3 -21 -22 -39 -43 -17 -21 -32 -34
-32 -30 0 4 -5 0 -11 -10 -6 -9 -15 -15 -20 -11 -6 3 -17 -2 -24 -12 -8 -11
-15 -16 -15 -12 0 4 -12 3 -27 -3 -70 -27 -225 -34 -260 -12 -13 7 -23 10 -23
6 0 -9 -22 21 -47 67 -30 53 -35 83 -18 107 45 64 188 382 197 438 2 11 6 22
10 25 4 3 9 18 12 34 3 15 10 34 17 42 6 7 9 21 5 29 -3 8 -1 15 4 15 4 0 12
15 15 33 9 39 74 235 87 260 12 23 15 22 32 -15z"/>
</g>
</svg>
